<?xml version="1.0" encoding="UTF-8" standalone="no"?>
<!-- Created with Inkscape (http://www.inkscape.org/) -->

<svg
   width="73.436234mm"
   height="27.157661mm"
   viewBox="0 0 73.436234 27.157661"
   version="1.1"
   id="svg1"
   xml:space="preserve"
   inkscape:version="1.3.2 (091e20e, 2023-11-25, custom)"
   sodipodi:docname="chatu.js.org-logo.svg"
   xmlns:inkscape="http://www.inkscape.org/namespaces/inkscape"
   xmlns:sodipodi="http://sodipodi.sourceforge.net/DTD/sodipodi-0.dtd"
   xmlns="http://www.w3.org/2000/svg"
   xmlns:svg="http://www.w3.org/2000/svg"><sodipodi:namedview
     id="namedview1"
     pagecolor="#ffffff"
     bordercolor="#000000"
     borderopacity="0.25"
     inkscape:showpageshadow="2"
     inkscape:pageopacity="0.0"
     inkscape:pagecheckerboard="0"
     inkscape:deskcolor="#d1d1d1"
     inkscape:document-units="mm"
     inkscape:zoom="1.4521662"
     inkscape:cx="582.92224"
     inkscape:cy="291.63328"
     inkscape:window-width="1680"
     inkscape:window-height="987"
     inkscape:window-x="-8"
     inkscape:window-y="-8"
     inkscape:window-maximized="1"
     inkscape:current-layer="layer1" /><defs
     id="defs1" /><g
     inkscape:label="Layer 1"
     inkscape:groupmode="layer"
     id="layer1"
     transform="translate(-115.50921,-35.706016)"><g
       id="g2"><rect
         style="opacity:0.99;fill:#fafafa;fill-opacity:1;stroke:#806e00;stroke-width:0.01;stroke-linecap:round;paint-order:stroke fill markers"
         id="rect1"
         width="73.426224"
         height="27.147661"
         x="115.51421"
         y="35.711018" /><g
         id="g1"><path
           style="font-weight:300;font-size:16.652px;font-family:'Exo 2';-inkscape-font-specification:'Exo 2 Light';text-align:center;letter-spacing:0px;text-anchor:middle;opacity:0.99;fill:#81ffff;fill-opacity:1;stroke:#806e00;stroke-width:0.0525962;stroke-linecap:round;paint-order:stroke fill markers"
           d="m 146.58165,48.285816 q -0.99067,0 -1.56157,0.369064 -0.5709,0.369064 -0.82276,1.27122 -0.23506,0.881652 -0.23506,2.460425 0,1.558269 0.23506,2.460426 0.25186,0.902155 0.82276,1.271219 0.5709,0.369064 1.56157,0.369064 0.97388,0 1.54478,-0.369064 0.58768,-0.369064 0.82276,-1.271219 0.25186,-0.902157 0.25186,-2.460426 0,-1.578773 -0.25186,-2.460425 -0.23508,-0.902156 -0.82276,-1.27122 -0.5709,-0.369064 -1.54478,-0.369064 z"
           id="path19" /><path
           style="fill:#008080"
           d="m 123.42206,60.899523 c -3.40472,-0.51207 -4.9613,-1.34931 -5.90618,-3.17673 -0.49453,-0.95644 -0.5906,-1.47716 -0.492,-2.66694 0.0674,-0.81315 0.3163,-1.8532 0.55316,-2.31123 0.36082,-0.69775 0.38154,-1.02776 0.12778,-2.0355 -0.69211,-2.74866 0.21093,-4.78321 2.61067,-5.88185 2.33227,-1.06774 5.45918,-1.3859 13.6416,-1.38798 6.88605,-0.002 7.35116,0.0279 7.22246,0.46115 -0.58373,1.96486 -0.60481,1.91823 0.86696,1.91823 1.02504,0 1.3516,0.0959 1.3516,0.39688 0,0.30953 -0.35624,0.39687 -1.61871,0.39687 -1.40857,0 -1.73208,0.0995 -2.49186,0.76663 -1.82264,1.6003 -3.32955,1.92216 -10.04464,2.14545 -3.34698,0.11129 -6.4824,0.32961 -6.96761,0.48514 -1.13237,0.36299 -3.21885,1.58298 -3.21885,1.88208 0,0.12645 0.36283,0.53522 0.80629,0.90837 1.47,1.23692 3.02732,1.50505 9.951,1.71334 l 6.39169,0.19227 1.53701,0.78606 c 1.14318,0.58465 1.73125,1.10022 2.29504,2.01213 0.89885,1.45386 1.27159,3.39603 0.65177,3.39603 -0.27339,0 -0.43831,-0.3638 -0.52878,-1.16645 -0.25105,-2.22729 -2.11578,-3.83144 -5.07917,-4.36938 -0.86347,-0.15675 -3.72573,-0.285 -6.36057,-0.285 -5.44189,0 -7.24509,-0.31975 -9.10652,-1.61481 -1.28421,-0.89348 -1.47222,-0.81186 -1.77704,0.77144 -0.281,1.45954 0.0392,3.19274 0.72561,3.9283 1.63348,1.75033 3.79038,2.20674 10.42857,2.20674 4.39815,0 5.14636,0.0577 5.14636,0.39687 0,0.33911 -0.68354,0.39207 -4.69637,0.36387 -2.58299,-0.0182 -5.29166,-0.12255 -6.01927,-0.23198 z"
           id="path11" /><path
           style="fill:#00ffff"
           d="m 123.46301,60.754732 c -3.40472,-0.51207 -4.96131,-1.34931 -5.90619,-3.17673 -0.49453,-0.95644 -0.59059,-1.47716 -0.492,-2.66694 0.0674,-0.81315 0.31631,-1.8532 0.55316,-2.31123 0.36082,-0.69775 0.38154,-1.02776 0.12779,-2.0355 -0.69212,-2.74866 0.21092,-4.78321 2.61067,-5.88185 2.33226,-1.06774 5.45917,-1.3859 13.64159,-1.38798 6.88605,-0.002 7.35116,0.0279 7.22246,0.46115 -0.58373,1.96486 -0.60481,1.91823 0.86696,1.91823 1.02505,0 1.35161,0.0959 1.35161,0.39688 0,0.30953 -0.35624,0.39687 -1.61872,0.39687 -1.40857,0 -1.73208,0.0995 -2.49186,0.76663 -1.82264,1.6003 -3.32955,1.92216 -10.04463,2.14545 -3.34699,0.11129 -6.48241,0.32961 -6.96762,0.48514 -1.13236,0.36299 -3.21885,1.58298 -3.21885,1.88208 0,0.12645 0.36283,0.53522 0.8063,0.90837 1.47,1.23692 3.02731,1.50505 9.951,1.71334 l 6.39168,0.19227 1.53701,0.78606 c 1.14318,0.58465 1.73125,1.10022 2.29504,2.01213 0.89885,1.45386 1.27159,3.39603 0.65177,3.39603 -0.27339,0 -0.43831,-0.3638 -0.52878,-1.16645 -0.25105,-2.22729 -2.11578,-3.83144 -5.07917,-4.36938 -0.86347,-0.15675 -3.72572,-0.285 -6.36056,-0.285 -5.4419,0 -7.2451,-0.31975 -9.10652,-1.61481 -1.28422,-0.89348 -1.47223,-0.81186 -1.77705,0.77144 -0.28099,1.45954 0.0392,3.19274 0.72561,3.9283 1.63348,1.75033 3.79038,2.20674 10.42858,2.20674 4.39814,0 5.14635,0.0577 5.14635,0.39687 0,0.33911 -0.68354,0.39207 -4.69636,0.36387 -2.58299,-0.0182 -5.29167,-0.12255 -6.01927,-0.23198 z m -3.67713,-10.45191 c 1.85547,-1.25915 3.24058,-1.49822 9.77263,-1.68672 6.07875,-0.17542 6.0998,-0.17807 7.66143,-0.96375 1.57369,-0.79175 2.93229,-2.18465 3.09106,-3.16909 0.0837,-0.51887 -0.0563,-0.52872 -7.1907,-0.50629 -7.65188,0.0241 -9.99779,0.25815 -12.23592,1.22097 -1.8666,0.80299 -2.58075,1.77631 -2.58075,3.51731 0,1.28669 0.17704,2.2503 0.41343,2.2503 0.0507,0 0.5317,-0.29823 1.06882,-0.66273 z m 6.89623,-9.56783 c -0.5108,-0.51078 0.18955,-0.61736 4.05694,-0.61736 3.58658,0 4.23334,0.0606 4.23334,0.39688 0,0.33552 -0.62716,0.39687 -4.05695,0.39687 -2.23132,0 -4.13632,-0.0794 -4.23333,-0.17639 z m -0.87447,-2.33715 c -0.2096,-0.54621 0.0746,-1.19062 0.52508,-1.19062 0.54159,0 1.00237,0.65765 0.81072,1.15709 -0.20742,0.54053 -1.13234,0.56375 -1.3358,0.0335 z m 4.45516,0.0794 c -0.45794,-0.45795 -0.39082,-0.94756 0.17114,-1.24831 0.33619,-0.17992 0.58382,-0.16632 0.79375,0.0436 0.43743,0.43743 0.3761,1.17376 -0.1134,1.3616 -0.53286,0.20447 -0.48045,0.21413 -0.85149,-0.1569 z m 4.36596,0.15025 c -0.32606,-0.32606 -0.19881,-1.35855 0.18562,-1.50607 0.20414,-0.0783 0.59109,0.021 0.85989,0.22078 0.3888,0.28894 0.42884,0.46107 0.1958,0.84173 -0.31697,0.51776 -0.9433,0.74157 -1.24131,0.44356 z"
           id="path12"
           sodipodi:nodetypes="ssssssccssscssssscssssssssssscssssscsssscsssccssccssssssscsss" /><text
           xml:space="preserve"
           style="font-weight:900;font-size:19.7556px;font-family:'Exo 2';-inkscape-font-specification:'Exo 2 Heavy';text-align:center;letter-spacing:-1.33085px;text-anchor:middle;opacity:0.99;fill:#008080;stroke:#806e00;stroke-width:0.01;stroke-linecap:round;paint-order:stroke fill markers"
           x="164.13879"
           y="57.263515"
           id="text13"><tspan
             sodipodi:role="line"
             id="tspan13"
             x="163.47337"
             y="57.263515"
             style="font-style:normal;font-variant:normal;font-weight:300;font-stretch:normal;font-family:'Exo 2';-inkscape-font-specification:'Exo 2 Light';stroke-width:0.01">opens</tspan></text><path
           style="fill:#008080"
           d="m 119.74494,50.302822 c 1.85547,-1.25915 3.24058,-1.49822 9.77262,-1.68672 6.07876,-0.17542 6.09981,-0.17807 7.66144,-0.96375 1.57369,-0.79175 2.93229,-2.18465 3.09106,-3.16909 0.0837,-0.51887 -0.0563,-0.52872 -7.1907,-0.50629 -7.65188,0.0241 -9.99779,0.25815 -12.23592,1.22097 -1.8666,0.80299 -2.58075,1.77631 -2.58075,3.51731 0,1.28669 0.17703,2.2503 0.41343,2.2503 0.0507,0 0.5317,-0.29823 1.06882,-0.66273 z"
           id="path13" /><circle
           style="opacity:0.99;fill:#00ffff;stroke:#806e00;stroke-width:0.01;stroke-linecap:round;paint-order:stroke fill markers"
           id="circle13"
           cx="136.96207"
           cy="44.367912"
           r="0.61082232" /><text
           xml:space="preserve"
           style="font-style:normal;font-variant:normal;font-weight:300;font-stretch:normal;font-size:2.6772px;font-family:'Exo 2';-inkscape-font-specification:'Exo 2 Light';text-align:center;letter-spacing:0.931676px;text-anchor:middle;opacity:0.99;fill:#00ffff;stroke:#806e00;stroke-width:0.0075889;stroke-linecap:round;paint-order:stroke fill markers"
           x="172.85652"
           y="60.092323"
           id="text15"
           transform="scale(0.98575379,1.0144521)"><tspan
             sodipodi:role="line"
             id="tspan15"
             x="173.32236"
             y="60.092323"
             style="font-size:2.6772px;letter-spacing:0.931676px;stroke-width:0.0075889"><tspan
   style="fill:#808000"
   id="tspan1">chatu</tspan>.webstack</tspan></text><path
           style="font-weight:300;font-size:3.52777px;font-family:'Exo 2';-inkscape-font-specification:'Exo 2 Light';text-align:center;letter-spacing:0px;text-anchor:middle;opacity:0.99;fill:#008080;stroke:#806e00;stroke-width:0.00355019;stroke-linecap:round;paint-order:stroke fill markers"
           d="m 185.61271,48.849622 v 0.864173 h -0.0827 v -0.864173 z m 0.28806,0 v 0.07264 h -0.65753 v -0.07264 z m 0.94934,0 q 0.0351,0 0.0351,0.03632 l 0.0376,0.827851 h -0.0827 l -0.0339,-0.795289 h -0.0275 l -0.22544,0.677562 q -0.008,0.02755 -0.0363,0.02755 h -0.0827 q -0.0288,0 -0.0376,-0.02755 l -0.22418,-0.677562 h -0.0275 l -0.0325,0.795289 h -0.0827 l 0.0351,-0.827851 q 0.002,-0.03632 0.0376,-0.03632 h 0.0989 q 0.0275,0 0.0351,0.02881 l 0.18911,0.563591 q 0.0113,0.02881 0.0188,0.05886 0.009,0.02881 0.0188,0.05887 h 0.0263 q 0.009,-0.03006 0.0176,-0.05887 0.009,-0.03006 0.0188,-0.06137 l 0.18913,-0.561086 q 0.008,-0.02881 0.0363,-0.02881 z"
           id="path16"
           aria-label="TM" /><text
           xml:space="preserve"
           style="font-style:normal;font-variant:normal;font-weight:900;font-stretch:normal;font-size:2.48701px;font-family:'Exo 2';-inkscape-font-specification:'Exo 2 Heavy';text-align:center;letter-spacing:0px;text-anchor:middle;opacity:0.99;fill:#008080;stroke:#806e00;stroke-width:0.00704979;stroke-linecap:round;paint-order:stroke fill markers"
           x="145.70193"
           y="61.06675"
           id="text17"><tspan
             sodipodi:role="line"
             id="tspan17"
             x="145.70193"
             y="61.06675"
             style="letter-spacing:0px;fill:#008080;stroke-width:0.00704979">ct.ws</tspan></text><path
           style="font-weight:300;font-size:16.652px;font-family:'Exo 2';-inkscape-font-specification:'Exo 2 Light';text-align:center;letter-spacing:0px;text-anchor:middle;opacity:0.99;fill:#008080;stroke:#806e00;stroke-width:0.00470406;stroke-linecap:round;paint-order:stroke fill markers"
           d="m 144.84915,51.726374 q 0.0955,0 0.15324,0.0584 0.0578,0.0584 0.0825,0.189233 0.026,0.130827 0.026,0.348094 0,0.217268 -0.026,0.348095 -0.0248,0.130828 -0.0825,0.189233 -0.0577,0.0584 -0.15324,0.0584 -0.0955,0 -0.15324,-0.0584 -0.0578,-0.0584 -0.0837,-0.189233 -0.0259,-0.130827 -0.0259,-0.348095 0,-0.217267 0.0259,-0.348094 0.026,-0.130829 0.0837,-0.189233 0.0578,-0.0584 0.15324,-0.0584 z"
           id="text19" /></g></g></g></svg>
